<?xml version="1.0" encoding="UTF-8"?><svg id="Layer_2" xmlns="http://www.w3.org/2000/svg" viewBox="0 0 1290.68 620.57"><defs><style>.cls-1,.cls-2{fill:#ff640d;}.cls-2{opacity:.54;}.cls-3{fill:#374151;}</style></defs><g id="Layer_1-2"><path class="cls-1" d="M254.61,620.57c.41,0,.82-.03,1.23-.03-16.34-.07-32.4-1.31-48.1-3.67,16.23,2.45,32.05,3.71,46.87,3.71Z"/><path class="cls-2" d="M257.23,620.57c46.9,0,91.48-9.87,131.86-27.54-43.39,17.35-89.56,27.32-133.25,27.51.46,0,.92.03,1.38.03Z"/><path class="cls-1" d="M510.56,499.25l-110.19-101.37c-9.64-8.87-24.03-9.73-34.9-2.42-32.98,22.17-71.53,33.78-112.81,33.78-49.18,0-97.35-16.51-135.64-46.48-77.23-60.47-95.38-166.49-42.22-246.6,27.52-41.44,83.03-76.04,144.87-90.29,18.33-4.22,37.29-6.37,56.36-6.37,44.93,0,91.76,12.04,135.52,34.86l.23.12c11.82,6.64,23.06,14.27,33.44,22.71l8.15,6.62,2.45,1.99-2.32,2.13-69.01,63.49-1.42,1.31-1.7-.91-6.8-3.62c-22.09-11.73-55.59-27.61-91.2-30.03-4.05-.27-8.16-.41-12.2-.41-20.97,0-41.96,3.65-61.56,11.18-17.09,6.56-40.79,17.66-51.84,32.97-2.29,3.18-3.45,7.45-1.97,11.08,1.73,4.25,6.67,6.5,11.26,6.43,7.56-.11,15.14-4.91,22.1-7.5,8.56-3.18,17.31-5.83,26.19-7.94,17.66-4.21,35.82-6.28,53.98-6.28,27.74,0,50.59,5.89,71.9,18.53,8.89,5.27,17.26,11.62,24.95,18.08,10.01,8.41,24.65,8.24,34.27-.61l110.22-101.39c4.96-4.56,5.06-12.36.22-17.05-9.8-9.52-20.21-18.4-31.05-26.51-9.77-7.29-20.08-14.15-30.66-20.37C396.21,17.17,333.89,0,273.68,0c-41.45,0-80.71,7.85-116.69,23.32C93.18,50.79,43.48,95.63,20.63,146.37,1.53,188.75-4.34,231.63,3.16,273.85c6.74,37.95,24.61,74.75,51.68,106.41,25.89,30.28,59.33,55.08,96.7,71.71,31.38,13.97,74.59,22.66,112.77,22.66,4.57-.05,9.06-.18,13.47-.38,35-2.06,67.29-12.26,95.97-30.3l7.01-4.41,1.76-1.11,1.53,1.41,71.43,65.7,2.5,2.29-2.78,1.94-9.33,6.53c-61.88,43.26-137.5,64.35-212.92,58.78-79.67-5.89-156.4-41.52-212.07-98.83-5.43-5.59-13.31-4.05-17.61.4-.23.24-.47.47-.67.72-.05.05-.1.11-.15.16-1.13,1.43-1.9,3.13-2.24,4.97-.39,2.14-.17,4.49.95,6.91.09.19.17.38.26.56,16.51,34.98,49.23,60.44,81.36,80.57,33.25,20.84,70.21,35.63,108.67,43.44,4.92,1,9.86,1.88,14.82,2.65.49.08.98.15,1.48.23,15.7,2.37,31.76,3.61,48.1,3.67,43.69-.18,89.86-10.16,133.25-27.51,45.73-18.28,88.37-44.73,121.65-76.67,4.57-4.39,4.81-11.25.86-15.94-.33-.4-.64-.8-1.03-1.17Z"/><path class="cls-3" d="M702.57,185.21h-5.05c-.44-1.76-1.24-3.84-2.38-6.26-1.15-2.42-2.43-4.7-3.85-6.84-1.47-2.24-3.07-4.21-4.81-5.89s-3.41-2.65-5.03-2.89c-1.52-.19-3.42-.34-5.72-.44-2.3-.1-4.43-.15-6.38-.15h-4.26v83.09c0,1.61.34,3.09,1.02,4.43.68,1.34,1.88,2.38,3.59,3.11.88.34,2.72.8,5.53,1.39,2.81.59,4.99.9,6.55.95v5.2h-49.05v-5.2c1.37-.1,3.45-.29,6.26-.58,2.81-.29,4.75-.66,5.82-1.1,1.61-.63,2.79-1.55,3.55-2.75.76-1.2,1.13-2.79,1.13-4.79v-83.75h-4.25c-1.51,0-3.39.04-5.64.11-2.25.07-4.39.23-6.44.48-1.61.2-3.28,1.16-5.01,2.89-1.73,1.73-3.33,3.7-4.79,5.89s-2.76,4.53-3.88,6.99c-1.12,2.46-1.9,4.5-2.34,6.11h-5.12v-28.18h90.55v28.18Z"/><path class="cls-3" d="M791.24,260.9h-35.5v-4.83c1.12-.1,2.37-.19,3.73-.29,1.37-.1,2.49-.29,3.37-.58,1.37-.44,2.38-1.21,3.04-2.31.66-1.1.99-2.53.99-4.28v-37.11c0-5.12-1.21-9.08-3.63-11.86s-5.37-4.17-8.84-4.17c-2.54,0-4.9.4-7.08,1.21-2.18.81-4.12,1.79-5.83,2.96-1.66,1.22-2.94,2.44-3.82,3.66-.88,1.22-1.56,2.25-2.05,3.07v41.51c0,1.66.33,3.03.99,4.1.66,1.07,1.67,1.9,3.04,2.49,1.07.49,2.18.85,3.33,1.1,1.15.24,2.4.42,3.77.51v4.83h-35.36v-4.83c1.11-.1,2.28-.21,3.49-.33,1.21-.12,2.23-.31,3.05-.55,1.36-.44,2.37-1.21,3.05-2.31.68-1.1,1.02-2.53,1.02-4.29v-84.1c0-1.66-.38-3.32-1.13-4.98-.76-1.66-1.75-2.91-2.96-3.74-.88-.63-2.43-1.09-4.65-1.35-2.22-.27-4.01-.45-5.38-.55v-4.69l26.72-1.61,1.02,1.1v50.37h.29c1.61-1.61,3.08-3.04,4.4-4.28,1.32-1.24,3.06-2.55,5.21-3.92,1.86-1.17,4.04-2.15,6.56-2.93,2.52-.78,5.34-1.17,8.47-1.17,6.45,0,11.41,2.04,14.88,6.11,3.47,4.08,5.21,9.94,5.21,17.61v37.55c0,1.71.31,3.09.92,4.14.61,1.05,1.63,1.87,3.06,2.45,1.13.44,2.15.77,3.06.99.91.22,2.1.38,3.58.48v4.83Z"/><path class="cls-3" d="M867.82,243.92c-3.03,5.76-7.08,10.35-12.15,13.76-5.08,3.42-10.91,5.12-17.5,5.12-5.81,0-10.9-1.03-15.26-3.08-4.37-2.05-7.97-4.83-10.8-8.34-2.83-3.51-4.94-7.61-6.33-12.3-1.39-4.68-2.09-9.64-2.09-14.86,0-4.69.74-9.28,2.23-13.8,1.49-4.51,3.67-8.58,6.55-12.19,2.78-3.46,6.23-6.26,10.36-8.38,4.12-2.12,8.75-3.18,13.87-3.18s9.78.83,13.54,2.49c3.76,1.66,6.81,3.93,9.15,6.81,2.24,2.73,3.92,5.95,5.01,9.66,1.1,3.71,1.65,7.74,1.65,12.08v4.83h-47.8c0,4.74.45,9.05,1.35,12.91.9,3.86,2.33,7.26,4.28,10.2,1.9,2.84,4.39,5.08,7.47,6.71,3.07,1.64,6.73,2.46,10.98,2.46s8.09-1.02,11.24-3.05c3.15-2.04,6.19-5.7,9.11-11l5.12,3.15ZM851.64,216.39c0-2.72-.23-5.64-.7-8.76-.46-3.11-1.21-5.72-2.23-7.81-1.12-2.24-2.66-4.06-4.61-5.47-1.95-1.41-4.47-2.12-7.54-2.12-5.12,0-9.38,2.13-12.77,6.39-3.39,4.26-5.23,10.18-5.53,17.77h33.38Z"/><path class="cls-3" d="M1018.58,260.9h-43.18v-5.2c3.81-.24,6.97-.73,9.48-1.46,2.51-.73,3.77-1.63,3.77-2.71,0-.44-.05-.98-.15-1.61-.1-.63-.24-1.19-.44-1.68l-8.6-23.28h-36.46c-1.37,3.42-2.48,6.39-3.34,8.93-.86,2.54-1.63,4.88-2.31,7.03-.64,2.1-1.08,3.81-1.32,5.12-.24,1.32-.37,2.39-.37,3.22,0,1.95,1.54,3.47,4.61,4.54,3.07,1.07,6.54,1.71,10.4,1.9v5.2h-39.12v-5.2c1.27-.1,2.85-.38,4.76-.84,1.9-.46,3.46-1.08,4.69-1.87,1.95-1.32,3.46-2.7,4.54-4.14,1.07-1.44,2.12-3.43,3.15-5.97,5.22-13.03,10.98-27.67,17.28-43.92,6.3-16.25,11.91-30.72,16.84-43.41h5.86l34.63,89.6c.73,1.9,1.56,3.44,2.49,4.61.93,1.17,2.22,2.32,3.88,3.44,1.12.68,2.59,1.26,4.39,1.72,1.8.46,3.32.72,4.54.77v5.2ZM976.79,218.44l-15.73-40.31-15.51,40.31h31.24Z"/><path class="cls-3" d="M1071.45,260.9h-46.78v-5.2c1.32-.1,3.22-.24,5.71-.44,2.49-.19,4.25-.49,5.27-.88,1.61-.63,2.78-1.5,3.51-2.6s1.1-2.62,1.1-4.58v-75.25c0-1.71-.27-3.14-.81-4.28-.54-1.15-1.81-2.11-3.81-2.89-1.46-.59-3.31-1.13-5.53-1.65-2.22-.51-4.04-.82-5.45-.92v-5.2h46.78v5.2c-1.51.05-3.32.23-5.42.55-2.1.32-3.93.72-5.49,1.21-1.85.59-3.1,1.54-3.73,2.85-.63,1.32-.95,2.78-.95,4.39v75.18c0,1.61.35,3.04,1.06,4.28.71,1.24,1.92,2.23,3.62,2.96,1.02.39,2.7.82,5.01,1.28,2.32.46,4.28.72,5.89.77v5.2Z"/><path class="cls-3" d="M663.81,443.3c-6.19,0-12.13-1.22-17.81-3.66-5.68-2.44-10.72-5.96-15.1-10.55-4.34-4.59-7.8-10.19-10.39-16.81-2.58-6.62-3.88-14.08-3.88-22.38s1.27-15.83,3.8-22.6c2.53-6.76,6.04-12.59,10.53-17.47,4.44-4.83,9.68-8.57,15.72-11.21s12.51-3.96,19.38-3.96c5.12,0,9.75.63,13.9,1.9,4.14,1.27,8.09,3.05,11.85,5.34l3-4.98h5.86l.66,37.04h-6c-.78-3.61-1.95-7.53-3.51-11.75-1.56-4.22-3.39-7.8-5.48-10.72-2.34-3.32-5.12-5.92-8.33-7.8-3.22-1.88-6.9-2.82-11.04-2.82-4.73,0-9.13,1.05-13.2,3.15s-7.59,5.2-10.56,9.3c-2.83,3.96-5.05,8.99-6.65,15.09-1.61,6.11-2.41,12.92-2.41,20.44,0,6.64.84,12.74,2.52,18.28,1.68,5.54,4.08,10.42,7.2,14.62,3.12,4.15,6.81,7.4,11.08,9.75,4.27,2.34,9.03,3.52,14.3,3.52,3.95,0,7.58-.62,10.9-1.87,3.31-1.25,6.19-2.89,8.63-4.94,2.44-2.15,4.58-4.59,6.43-7.32,1.85-2.73,3.36-5.71,4.53-8.93l5.49,2.64c-4.19,10.3-9.75,17.65-16.68,22.07-6.92,4.42-15.17,6.62-24.72,6.62Z"/><path class="cls-3" d="M786.62,403.99c0,5.08-.81,10.07-2.42,14.97-1.61,4.9-3.91,9.07-6.89,12.48-3.37,3.91-7.28,6.81-11.73,8.71-4.45,1.9-9.43,2.86-14.95,2.86-4.59,0-8.97-.87-13.12-2.6-4.15-1.73-7.84-4.26-11.07-7.58-3.18-3.27-5.7-7.26-7.58-11.97-1.88-4.71-2.82-9.99-2.82-15.85,0-11.27,3.28-20.5,9.86-27.67,6.57-7.17,15.18-10.76,25.83-10.76s18.45,3.4,25.03,10.21c6.57,6.81,9.86,15.87,9.86,27.2ZM771.47,404.13c0-3.66-.37-7.53-1.1-11.6-.73-4.07-1.83-7.53-3.3-10.36-1.56-3.03-3.62-5.45-6.16-7.28-2.54-1.83-5.65-2.75-9.31-2.75s-6.98.93-9.64,2.78c-2.67,1.86-4.83,4.39-6.49,7.61-1.56,2.98-2.67,6.37-3.3,10.18-.64,3.81-.95,7.49-.95,11.05,0,4.69.38,9.02,1.14,12.99.76,3.98,1.97,7.53,3.63,10.65,1.66,3.12,3.75,5.58,6.27,7.36,2.52,1.78,5.63,2.67,9.35,2.67,6.11,0,10.95-2.95,14.52-8.86,3.57-5.9,5.35-14.05,5.35-24.45Z"/><path class="cls-3" d="M834.59,440.81h-35.21v-4.83c1.12-.1,2.32-.21,3.59-.33,1.27-.12,2.32-.31,3.15-.55,1.37-.44,2.39-1.21,3.07-2.31.68-1.1,1.02-2.53,1.02-4.29v-83.66c0-1.76-.38-3.41-1.13-4.94-.76-1.54-1.75-2.75-2.96-3.63-.88-.59-2.49-1.12-4.83-1.61-2.34-.49-4.22-.78-5.64-.88v-4.69l27.16-1.61,1.02,1.1v99.05c0,1.71.32,3.11.95,4.21.63,1.1,1.66,1.94,3.07,2.53,1.07.49,2.13.85,3.18,1.1,1.05.24,2.23.42,3.55.51v4.83Z"/><path class="cls-3" d="M881.23,440.81h-35.21v-4.83c1.12-.1,2.32-.21,3.59-.33,1.27-.12,2.32-.31,3.15-.55,1.37-.44,2.39-1.21,3.07-2.31.68-1.1,1.02-2.53,1.02-4.29v-83.66c0-1.76-.38-3.41-1.13-4.94-.76-1.54-1.75-2.75-2.96-3.63-.88-.59-2.49-1.12-4.83-1.61-2.34-.49-4.22-.78-5.64-.88v-4.69l27.16-1.61,1.02,1.1v99.05c0,1.71.32,3.11.95,4.21.63,1.1,1.66,1.94,3.07,2.53,1.07.49,2.13.85,3.18,1.1,1.05.24,2.23.42,3.55.51v4.83Z"/><path class="cls-3" d="M958.19,423.82c-3.03,5.76-7.08,10.35-12.15,13.76-5.08,3.42-10.91,5.12-17.5,5.12-5.81,0-10.9-1.02-15.26-3.07-4.37-2.05-7.97-4.83-10.8-8.35-2.83-3.51-4.94-7.61-6.33-12.3-1.39-4.68-2.09-9.64-2.09-14.86,0-4.68.74-9.28,2.23-13.8,1.49-4.51,3.67-8.58,6.55-12.19,2.78-3.46,6.23-6.26,10.36-8.38,4.12-2.12,8.75-3.18,13.87-3.18s9.78.83,13.54,2.49c3.76,1.66,6.81,3.93,9.15,6.81,2.24,2.73,3.92,5.96,5.01,9.66,1.1,3.71,1.65,7.74,1.65,12.08v4.83h-47.8c0,4.75.45,9.05,1.35,12.91.9,3.86,2.33,7.26,4.28,10.2,1.9,2.84,4.39,5.08,7.47,6.71,3.07,1.64,6.73,2.46,10.98,2.46s8.09-1.02,11.24-3.05c3.15-2.04,6.19-5.7,9.11-11l5.12,3.15ZM942.01,396.3c0-2.72-.23-5.64-.7-8.76-.46-3.11-1.21-5.72-2.23-7.81-1.12-2.24-2.66-4.06-4.61-5.47-1.95-1.41-4.47-2.12-7.54-2.12-5.12,0-9.38,2.13-12.77,6.39-3.39,4.26-5.23,10.18-5.53,17.77h33.38Z"/><path class="cls-3" d="M1003.66,442.71c-10.44,0-18.62-3.46-24.52-10.4-5.91-6.93-8.86-16.23-8.86-27.89,0-5.08.79-9.82,2.38-14.24,1.59-4.42,3.89-8.43,6.92-12.04,2.88-3.46,6.49-6.26,10.83-8.38,4.34-2.12,9.08-3.18,14.2-3.18,7.08,0,12.83,1.7,17.28,5.09,4.44,3.39,6.66,8.02,6.66,13.87,0,2.44-.59,4.6-1.76,6.48-1.17,1.88-3.1,2.82-5.78,2.82-2.88,0-5.11-.73-6.7-2.19-1.59-1.46-2.38-3.09-2.38-4.89,0-2.19.29-4.44.88-6.75.59-2.31.93-4,1.02-5.07-.88-1.51-2.18-2.52-3.91-3.03-1.73-.51-3.59-.77-5.59-.77-2.34,0-4.56.5-6.68,1.5-2.12,1-4.17,2.84-6.17,5.53-1.8,2.44-3.26,5.74-4.38,9.88-1.12,4.15-1.68,9.1-1.68,14.86,0,9.08,2.01,16.48,6.03,22.22,4.02,5.74,9.29,8.6,15.82,8.6,4.73,0,8.69-1.15,11.88-3.46,3.19-2.31,6.15-5.76,8.88-10.38l4.68,3.08c-3.22,5.76-7.47,10.32-12.74,13.69-5.27,3.37-10.71,5.05-16.32,5.05Z"/><path class="cls-3" d="M1086.69,437.66c-3.17,1.32-6.17,2.43-9,3.33-2.83.9-6.3,1.35-10.4,1.35-6.05,0-10.31-1.53-12.77-4.58-2.46-3.05-3.7-7.36-3.7-12.92v-48.9h-13.03v-7.03h13.32v-22.47h13.32v22.47h20.72v7.03h-20.57v40.34c0,3.03.11,5.55.33,7.58.22,2.03.74,3.8,1.57,5.31.78,1.42,1.95,2.49,3.51,3.22,1.56.73,3.66,1.1,6.3,1.1,1.22,0,3.01-.11,5.38-.33,2.37-.22,4.04-.5,5.01-.84v5.34Z"/><path class="cls-3" d="M1132.6,440.81h-34.85v-4.83c1.12-.1,2.28-.2,3.48-.29,1.2-.1,2.23-.29,3.11-.58,1.37-.44,2.38-1.21,3.04-2.3.66-1.1.99-2.52.99-4.28v-44.53c0-1.56-.35-2.99-1.06-4.28-.71-1.29-1.7-2.38-2.96-3.25-.93-.58-2.27-1.08-4.03-1.5-1.76-.41-3.37-.67-4.83-.77v-4.83l25.48-1.61,1.02,1.03v58.86c0,1.71.33,3.12.98,4.25.65,1.12,1.68,1.95,3.09,2.49,1.07.44,2.11.79,3.13,1.06,1.02.27,2.16.45,3.42.55v4.83ZM1123.45,339.27c0,2.78-.92,5.21-2.75,7.28-1.83,2.08-4.09,3.11-6.77,3.11-2.49,0-4.65-.99-6.48-2.96s-2.75-4.23-2.75-6.77c0-2.68.92-5.03,2.75-7.03,1.83-2,3.99-3,6.48-3,2.78,0,5.06.94,6.84,2.82,1.78,1.88,2.67,4.06,2.67,6.55Z"/><path class="cls-3" d="M1216.58,373.09c-2.2.39-4.28,1.18-6.26,2.38-1.98,1.2-3.67,3.31-5.09,6.33-2.88,6.54-5.86,13.36-8.93,20.46-3.07,7.1-6.27,14.56-9.59,22.36-.98,2.25-2.01,4.91-3.11,7.98-1.1,3.08-2.11,6.03-3.04,8.86h-5.71c-4.64-11.47-8.91-21.92-12.81-31.37-3.91-9.44-7.96-19.12-12.15-29.03-.98-2.24-2.55-3.99-4.72-5.23-2.17-1.25-4.36-2.04-6.55-2.38v-4.83h33.41v5.12c-1.46.05-3.3.35-5.49.91s-3.29,1.33-3.29,2.3c0,.15.12.52.37,1.13.24.61.49,1.3.73,2.08,1.99,4.97,4.82,11.92,8.47,20.84,3.65,8.92,6.62,16.11,8.91,21.57,1.76-4.19,3.96-9.41,6.62-15.65,2.66-6.24,5.53-13.21,8.6-20.92.49-1.32.95-2.55,1.39-3.69.44-1.15.66-2.3.66-3.47,0-.83-.4-1.57-1.21-2.23-.81-.66-1.77-1.23-2.89-1.72-1.12-.49-2.22-.85-3.29-1.1-1.07-.24-1.95-.41-2.64-.51v-4.68h27.62v4.46Z"/><path class="cls-3" d="M1287.61,423.82c-3.03,5.76-7.08,10.35-12.15,13.76-5.08,3.42-10.91,5.12-17.5,5.12-5.81,0-10.9-1.02-15.26-3.07-4.37-2.05-7.97-4.83-10.8-8.35-2.83-3.51-4.94-7.61-6.33-12.3-1.39-4.68-2.09-9.64-2.09-14.86,0-4.68.74-9.28,2.23-13.8,1.49-4.51,3.67-8.58,6.55-12.19,2.78-3.46,6.23-6.26,10.36-8.38,4.12-2.12,8.75-3.18,13.87-3.18s9.78.83,13.54,2.49c3.76,1.66,6.81,3.93,9.15,6.81,2.24,2.73,3.92,5.96,5.01,9.66,1.1,3.71,1.65,7.74,1.65,12.08v4.83h-47.8c0,4.75.45,9.05,1.35,12.91.9,3.86,2.33,7.26,4.28,10.2,1.9,2.84,4.39,5.08,7.47,6.71,3.07,1.64,6.73,2.46,10.98,2.46s8.09-1.02,11.24-3.05c3.15-2.04,6.19-5.7,9.11-11l5.12,3.15ZM1271.43,396.3c0-2.72-.23-5.64-.7-8.76-.46-3.11-1.21-5.72-2.23-7.81-1.12-2.24-2.66-4.06-4.61-5.47-1.95-1.41-4.47-2.12-7.54-2.12-5.12,0-9.38,2.13-12.77,6.39-3.39,4.26-5.23,10.18-5.53,17.77h33.38Z"/></g></svg>